<svg xmlns="http://www.w3.org/2000/svg" viewBox="0 0 400 300" data-imageid="idea-applications-outline" imageName="Idea applications" class="illustrations_image" style="width: 146px;"><g id="_338_idea_applications_outline" data-name="#338_idea_applications_outline"><path d="M192.81,232.77a75.36,75.36,0,1,1,75.36-75.36A75.44,75.44,0,0,1,192.81,232.77Zm0-148.72a73.36,73.36,0,1,0,73.36,73.36A73.44,73.44,0,0,0,192.81,84.05Z" fill="#093f68"/><ellipse cx="192.81" cy="132.9" rx="8.42" ry="6.43" fill="#093f68"/><path d="M192.81,140.33c-5.2,0-9.42-3.34-9.42-7.43s4.22-7.43,9.42-7.43,9.42,3.33,9.42,7.43S198,140.33,192.81,140.33Zm0-12.86c-4.09,0-7.42,2.43-7.42,5.43s3.33,5.43,7.42,5.43,7.42-2.44,7.42-5.43S196.9,127.47,192.81,127.47Z" fill="#093f68"/><path d="M217.75,88.51a24.94,24.94,0,1,0-42.6,17.61,24.47,24.47,0,0,1,6.38,11.81l.2.86h22.15l.24-1a26,26,0,0,1,6.7-12A24.87,24.87,0,0,0,217.75,88.51Z" fill="#d71919" class="target-color"/><path d="M203.88,119.79H181.73a1,1,0,0,1-1-.78l-.2-.85a23.58,23.58,0,0,0-6.12-11.34,25.94,25.94,0,0,1,16.71-44.21,25.72,25.72,0,0,1,19.42,7,25.94,25.94,0,0,1,1,36.85A25,25,0,0,0,205.1,118l-.24,1A1,1,0,0,1,203.88,119.79Zm-21.35-2h20.56l.06-.26a26.94,26.94,0,0,1,6.95-12.46,23.95,23.95,0,1,0-34.24.34,25.52,25.52,0,0,1,6.65,12.3Z" fill="#093f68"/><rect x="180.13" y="118.79" width="25.35" height="5.12" rx="2.3" fill="#fff"/><path d="M203.18,124.91H182.43a3.3,3.3,0,0,1-3.3-3.3v-.52a3.3,3.3,0,0,1,3.3-3.3h20.75a3.3,3.3,0,0,1,3.3,3.3v.52A3.3,3.3,0,0,1,203.18,124.91Zm-20.75-5.12a1.3,1.3,0,0,0-1.3,1.3v.52a1.31,1.31,0,0,0,1.3,1.3h20.75a1.3,1.3,0,0,0,1.3-1.3v-.52a1.3,1.3,0,0,0-1.3-1.3Z" fill="#093f68"/><rect x="180.13" y="123.91" width="25.35" height="5.12" rx="2.3" fill="#fff"/><path d="M203.18,130H182.43a3.3,3.3,0,0,1-3.3-3.3v-.52a3.3,3.3,0,0,1,3.3-3.3h20.75a3.3,3.3,0,0,1,3.3,3.3v.52A3.3,3.3,0,0,1,203.18,130Zm-20.75-5.12a1.3,1.3,0,0,0-1.3,1.3v.52a1.3,1.3,0,0,0,1.3,1.3h20.75a1.3,1.3,0,0,0,1.3-1.3v-.52a1.3,1.3,0,0,0-1.3-1.3Z" fill="#093f68"/><rect x="180.13" y="129.03" width="25.35" height="5.12" rx="2.3" fill="#fff"/><path d="M203.18,135.15H182.43a3.3,3.3,0,0,1-3.3-3.3v-.52a3.3,3.3,0,0,1,3.3-3.3h20.75a3.3,3.3,0,0,1,3.3,3.3v.52A3.3,3.3,0,0,1,203.18,135.15ZM182.43,130a1.3,1.3,0,0,0-1.3,1.3v.52a1.3,1.3,0,0,0,1.3,1.3h20.75a1.3,1.3,0,0,0,1.3-1.3v-.52a1.3,1.3,0,0,0-1.3-1.3Z" fill="#093f68"/><path d="M188.58,119.79a1,1,0,0,1-1-.87L183.4,87.81a1,1,0,0,1,.56-1,1,1,0,0,1,1.17.22l8.06,8.79,8.16-10.89a1,1,0,0,1,1.18-.33,1,1,0,0,1,.62,1l-3.84,33.29a1,1,0,0,1-2-.23l3.42-29.61L194.07,98a1,1,0,0,1-1.53.08l-6.73-7.33,3.76,28a1,1,0,0,1-.85,1.13Z" fill="#093f68"/><rect x="244.46" y="136.91" width="59.07" height="77.34" rx="6.57" fill="#d71919" class="target-color"/><path d="M297,215.24H251a7.58,7.58,0,0,1-7.57-7.57v-64.2a7.57,7.57,0,0,1,7.57-7.56H297a7.57,7.57,0,0,1,7.57,7.56v64.2A7.58,7.58,0,0,1,297,215.24ZM251,137.91a5.57,5.57,0,0,0-5.57,5.56v64.2a5.58,5.58,0,0,0,5.57,5.57H297a5.58,5.58,0,0,0,5.57-5.57v-64.2a5.57,5.57,0,0,0-5.57-5.56Z" fill="#093f68"/><rect x="249.15" y="142.4" width="49.69" height="63.64" rx="3.56" fill="#fff"/><path d="M295.28,207H252.71a4.56,4.56,0,0,1-4.56-4.55V146a4.56,4.56,0,0,1,4.56-4.56h42.57a4.56,4.56,0,0,1,4.56,4.56v56.52A4.56,4.56,0,0,1,295.28,207ZM252.71,143.4a2.56,2.56,0,0,0-2.56,2.56v56.52a2.56,2.56,0,0,0,2.56,2.55h42.57a2.56,2.56,0,0,0,2.56-2.55V146a2.56,2.56,0,0,0-2.56-2.56Z" fill="#093f68"/><path d="M275.87,210.74h-3.75a1,1,0,0,1,0-2h3.75a1,1,0,0,1,0,2Z" fill="#093f68"/><path d="M259,168.62a1,1,0,0,1-.67-1.74l21-19.07a1,1,0,1,1,1.35,1.49l-21,19.06A1,1,0,0,1,259,168.62Z" fill="#dfeaef"/><path d="M256.36,189.78a1,1,0,0,1-.75-.35,1,1,0,0,1,.1-1.41l22.72-19.52a1,1,0,0,1,1.3,1.52L257,189.54A1,1,0,0,1,256.36,189.78Z" fill="#dfeaef"/><path d="M269.6,199.33a1,1,0,0,1-.65-1.76l20.83-17.9a1,1,0,1,1,1.3,1.51l-20.83,17.91A1,1,0,0,1,269.6,199.33Z" fill="#dfeaef"/><rect x="230.8" y="166.94" width="33.51" height="54.62" rx="5" fill="#d71919" class="target-color"/><path d="M259.31,222.56H235.8a6,6,0,0,1-6-6V171.94a6,6,0,0,1,6-6h23.51a6,6,0,0,1,6,6v44.62A6,6,0,0,1,259.31,222.56ZM235.8,167.94a4,4,0,0,0-4,4v44.62a4,4,0,0,0,4,4h23.51a4,4,0,0,0,4-4V171.94a4,4,0,0,0-4-4Z" fill="#093f68"/><rect x="230.8" y="173.74" width="33.51" height="41.02" fill="#fff"/><path d="M264.31,215.76H230.8a1,1,0,0,1-1-1v-41a1,1,0,0,1,1-1h33.51a1,1,0,0,1,1,1v41A1,1,0,0,1,264.31,215.76Zm-32.51-2h31.51v-39H231.8Z" fill="#093f68"/><path d="M249.67,171.6h-4.23a1,1,0,0,1,0-2h4.23a1,1,0,0,1,0,2Z" fill="#093f68"/><path d="M238.64,201.16a1,1,0,0,1-.66-.25,1,1,0,0,1-.09-1.41l16.33-18.4a1,1,0,0,1,1.5,1.33l-16.33,18.4A1,1,0,0,1,238.64,201.16Z" fill="#dfeaef"/><path d="M248.68,204.35a1,1,0,0,1-.66-.25,1,1,0,0,1-.09-1.41l8.92-10a1,1,0,0,1,1.41-.09,1,1,0,0,1,.09,1.42l-8.92,10A1,1,0,0,1,248.68,204.35Z" fill="#dfeaef"/><path d="M188.2,151.66V212.3c0,.92-1.07,1.67-2.39,1.67h-87c-1.32,0-2.38-.75-2.38-1.67V151.66c0-.92,1.06-1.67,2.38-1.67h87C187.13,150,188.2,150.74,188.2,151.66Z" fill="#fff"/><path d="M185.81,215h-87c-1.89,0-3.38-1.16-3.38-2.66V151.66c0-1.49,1.49-2.67,3.38-2.67h87c1.9,0,3.39,1.18,3.39,2.67V212.3C189.2,213.8,187.71,215,185.81,215Zm-87-64c-.86,0-1.38.44-1.38.67V212.3c0,.24.52.66,1.38.66h87c.86,0,1.39-.42,1.39-.66V151.66c0-.23-.53-.67-1.39-.67Z" fill="#093f68"/><path d="M188.2,151.66V212.3c0,.92-1.07,1.67-2.39,1.67H125.15V150h60.66C187.13,150,188.2,150.74,188.2,151.66Z" fill="#093f68"/><path d="M185.81,215H125.15a1,1,0,0,1-1-1V150a1,1,0,0,1,1-1h60.66c1.9,0,3.39,1.18,3.39,2.67V212.3C189.2,213.8,187.71,215,185.81,215Zm-59.66-2h59.66c.86,0,1.39-.42,1.39-.66V151.66c0-.23-.53-.67-1.39-.67H126.15Z" fill="#093f68"/><path d="M188.2,151.66v6.83H96.47v-6.83c0-.92,1.06-1.67,2.38-1.67h87C187.13,150,188.2,150.74,188.2,151.66Z" fill="#d71919" class="target-color"/><path d="M188.2,159.49H96.47a1,1,0,0,1-1-1v-6.83c0-1.49,1.49-2.67,3.38-2.67h87c1.9,0,3.39,1.18,3.39,2.67v6.83A1,1,0,0,1,188.2,159.49Zm-90.73-2H187.2v-5.83c0-.23-.53-.67-1.39-.67h-87c-.86,0-1.38.44-1.38.67Z" fill="#093f68"/><path d="M121.05,164.81H103a1,1,0,0,1,0-2h18a1,1,0,1,1,0,2Z" fill="#dfeaef"/><path d="M116.56,170.46H109a1,1,0,0,1,0-2h7.6a1,1,0,0,1,0,2Z" fill="#dfeaef"/><path d="M118.62,176.11h-5a1,1,0,0,1,0-2h5a1,1,0,0,1,0,2Z" fill="#dfeaef"/><path d="M114.5,181.75h-8.37a1,1,0,0,1,0-2h8.37a1,1,0,0,1,0,2Z" fill="#dfeaef"/><path d="M117.79,187.4H103a1,1,0,1,1,0-2h14.75a1,1,0,0,1,0,2Z" fill="#dfeaef"/><path d="M121.05,193H108a1,1,0,0,1,0-2h13a1,1,0,0,1,0,2Z" fill="#dfeaef"/><path d="M116.55,198.69H103a1,1,0,0,1,0-2h13.51a1,1,0,1,1,0,2Z" fill="#dfeaef"/><path d="M121.05,204.33H108a1,1,0,0,1,0-2h13a1,1,0,0,1,0,2Z" fill="#dfeaef"/><path d="M143.09,164.81h-11a1,1,0,0,1,0-2h11a1,1,0,0,1,0,2Z" fill="#fff"/><path d="M158.25,170.46H135.72a1,1,0,0,1,0-2h22.53a1,1,0,0,1,0,2Z" fill="#ffbc0e"/><path d="M152.66,176.11H135.72a1,1,0,0,1,0-2h16.94a1,1,0,0,1,0,2Z" fill="#ffbc0e"/><path d="M143.72,181.75H134a1,1,0,0,1,0-2h9.73a1,1,0,1,1,0,2Z" fill="#fff"/><path d="M147.59,187.4h-11a1,1,0,0,1,0-2h11a1,1,0,0,1,0,2Z" fill="#f56132"/><path d="M153.18,193h-17a1,1,0,0,1,0-2h17a1,1,0,0,1,0,2Z" fill="#fff"/><path d="M140.34,198.69h-8.23a1,1,0,0,1,0-2h8.23a1,1,0,0,1,0,2Z" fill="#fff"/><path d="M153.18,204.33h-18a1,1,0,0,1,0-2h18a1,1,0,0,1,0,2Z" fill="#70cc40"/><path d="M170.46,204.33H158.62a1,1,0,0,1,0-2h11.84a1,1,0,0,1,0,2Z" fill="#ffbc0e"/><path d="M166.62,176.11h-8.37a1,1,0,0,1,0-2h8.37a1,1,0,0,1,0,2Z" fill="#fff"/><path d="M178.54,170.46h-16.1a1,1,0,0,1,0-2h16.1a1,1,0,0,1,0,2Z" fill="#d71919" class="target-color"/><path d="M175.87,176.11h-4.7a1,1,0,1,1,0-2h4.7a1,1,0,0,1,0,2Z" fill="#f56132"/><path d="M155.53,187.4h-4.7a1,1,0,0,1,0-2h4.7a1,1,0,0,1,0,2Z" fill="#f56132"/><path d="M178.54,187.4H159.4a1,1,0,0,1,0-2h19.14a1,1,0,0,1,0,2Z" fill="#ffbc0e"/><path d="M162.44,193h-4.19a1,1,0,0,1,0-2h4.19a1,1,0,0,1,0,2Z" fill="#d71919" class="target-color"/><path d="M178.54,204.33h-2.67a1,1,0,0,1,0-2h2.67a1,1,0,0,1,0,2Z" fill="#fff"/><circle cx="101.93" cy="153.92" r="1.68" fill="#093f68"/><circle cx="108.7" cy="153.92" r="1.68" fill="#093f68"/><circle cx="115.47" cy="153.92" r="1.68" fill="#093f68"/><path d="M135.14,122.35a1,1,0,0,1-1-.88l-1-8.23-7.69,2.52a1,1,0,1,1-.62-1.9l8.84-2.9a1,1,0,0,1,1.3.83l1.15,9.44a1,1,0,0,1-.87,1.11Z" fill="#093f68"/><path d="M252.14,114.08H252l-9.4-1.48a1,1,0,0,1,.31-2l8.19,1.29-.32-8.08a1,1,0,1,1,2-.08l.37,9.3a1,1,0,0,1-1,1Z" fill="#093f68"/><path d="M196.88,237.44a.94.94,0,0,1-.55-.17l-7.14-4.74a1,1,0,0,1-.44-.73A1,1,0,0,1,189,231l6.39-6.34a1,1,0,0,1,1.41,1.42l-5.52,5.48,6.12,4.06a1,1,0,0,1,.28,1.38A1,1,0,0,1,196.88,237.44Z" fill="#093f68"/></g></svg>