<svg xmlns="http://www.w3.org/2000/svg" viewBox="0 0 400 300" data-imageid="receptionist-outline-913f1" imageName="Receptionist" class="illustrations_image" style="width: 158px;"><g id="_346_receptionist_outline" data-name="#346_receptionist_outline"><path d="M195.41,170.84h13.76a0,0,0,0,1,0,0v7.92a5.84,5.84,0,0,1-5.84,5.84h-2.08a5.84,5.84,0,0,1-5.84-5.84v-7.92A0,0,0,0,1,195.41,170.84Z" fill="#ffc9b0"/><path d="M203.33,185.6h-2.08a6.85,6.85,0,0,1-6.84-6.84v-7.92a1,1,0,0,1,1-1h13.76a1,1,0,0,1,1,1v7.92A6.85,6.85,0,0,1,203.33,185.6Zm-6.92-13.76v6.92a4.84,4.84,0,0,0,4.84,4.84h2.08a4.84,4.84,0,0,0,4.84-4.84v-6.92Z" fill="#093f68"/><path d="M249.29,242.93V209.09c0-15.11-14.24-27.37-31.81-27.37H187.09c-17.56,0-31.81,12.26-31.81,27.37v33.84Z" fill="#fd8c68" class="target-color"/><path d="M249.29,243.93h-94a1,1,0,0,1-1-1V209.09c0-15.64,14.72-28.37,32.81-28.37h30.39c18.09,0,32.81,12.73,32.81,28.37v33.84A1,1,0,0,1,249.29,243.93Zm-93-2h92V209.09c0-14.54-13.82-26.37-30.81-26.37H187.09c-17,0-30.81,11.83-30.81,26.37Z" fill="#093f68"/><path d="M198.73,62.68a28,28,0,0,1,4.75-.39c7.33,0,14.81-.21,21.51,3.32,13.72,7.23,22.64,22.61,22.64,39.07v32.39H158.19c-.51-1.9.28-4.15.36-6a28.27,28.27,0,0,0-.87-6.25,94.08,94.08,0,0,1-1.76-16A66.28,66.28,0,0,1,160.74,84c1.78-4.69,3.88-9.54,7.72-12.47s9.92-3,12.66,1.11A29.94,29.94,0,0,1,198.73,62.68Z" fill="#725858"/><path d="M247.63,138.07H158.19a1,1,0,0,1-1-.74,10.65,10.65,0,0,1,.09-4.39,19.31,19.31,0,0,0,.24-2,19.15,19.15,0,0,0-.58-4.64c-.09-.46-.19-.92-.28-1.39a94.37,94.37,0,0,1-1.77-16.22c-.11-8,1.49-16.15,4.88-25.06,1.84-4.83,4-9.8,8-12.9a11.27,11.27,0,0,1,8.53-2.17,8.27,8.27,0,0,1,4.79,2.51,30.72,30.72,0,0,1,17.39-9.41,31.31,31.31,0,0,1,4.92-.41h1.31c7,0,14.15,0,20.67,3.43,14.08,7.42,23.17,23.1,23.17,40v32.39A1,1,0,0,1,247.63,138.07Zm-88.59-2h87.59V104.68c0-16.12-8.67-31.11-22.11-38.19-6.08-3.2-13-3.2-19.73-3.2h-1.32a27.39,27.39,0,0,0-4.58.38h0a28.78,28.78,0,0,0-17,9.65,1,1,0,0,1-.82.35,1,1,0,0,1-.78-.45,6.2,6.2,0,0,0-4.23-2.65,9.31,9.31,0,0,0-7,1.79c-3.66,2.79-5.66,7.47-7.4,12-3.3,8.67-4.86,16.62-4.75,24.32a92.47,92.47,0,0,0,1.74,15.88c.08.46.18.91.27,1.35a21,21,0,0,1,.62,5.13,18.19,18.19,0,0,1-.27,2.19A12.6,12.6,0,0,0,159,136.07Zm39.69-73.39h0Z" fill="#093f68"/><ellipse cx="162.97" cy="133.16" rx="13.37" ry="11.52" fill="#ffc9b0"/><path d="M163,145.68c-7.92,0-14.36-5.62-14.36-12.52s6.44-12.51,14.36-12.51,14.37,5.61,14.37,12.51S170.9,145.68,163,145.68Zm0-23c-6.81,0-12.36,4.71-12.36,10.51s5.55,10.52,12.36,10.52,12.37-4.72,12.37-10.52S169.79,122.65,163,122.65Z" fill="#093f68"/><ellipse cx="240.89" cy="133.16" rx="13.37" ry="11.52" fill="#ffc9b0"/><path d="M240.89,145.68c-7.92,0-14.36-5.62-14.36-12.52s6.44-12.51,14.36-12.51,14.37,5.61,14.37,12.51S248.81,145.68,240.89,145.68Zm0-23c-6.82,0-12.36,4.71-12.36,10.51s5.54,10.52,12.36,10.52,12.37-4.72,12.37-10.52S247.71,122.65,240.89,122.65Z" fill="#093f68"/><path d="M202.29,170.7h0A40.31,40.31,0,0,1,162,130.39V118.55s18-12.38,21-21.5c0,0,9.12,11.12,23.57,15.07a221.4,221.4,0,0,0,36.08,6.43v11.84A40.31,40.31,0,0,1,202.29,170.7Z" fill="#ffc9b0"/><path d="M202.29,171.7A41.35,41.35,0,0,1,161,130.39V118.55a1,1,0,0,1,.43-.82c.18-.12,17.72-12.3,20.59-21a1,1,0,0,1,.77-.67,1,1,0,0,1,1,.34c.09.11,9.1,10.93,23.05,14.75a221.91,221.91,0,0,0,35.9,6.39,1,1,0,0,1,.92,1v11.84A41.35,41.35,0,0,1,202.29,171.7ZM163,119.07v11.32a39.31,39.31,0,0,0,78.62,0V119.46a225.29,225.29,0,0,1-35.34-6.37c-11.88-3.26-20.13-11.12-23-14.18C179.29,107.28,165.65,117.18,163,119.07Z" fill="#093f68"/><path d="M205.21,144a22.66,22.66,0,0,1-3.61-.3,1,1,0,0,1-.81-1.15,1,1,0,0,1,1.16-.82,17.18,17.18,0,0,0,5.69,0c.37-.92-1.06-5.07-3.13-9a1,1,0,0,1,.43-1.35,1,1,0,0,1,1.34.42c1,1.94,4.23,8.45,3.16,10.83a1.83,1.83,0,0,1-1.24,1.06A12.92,12.92,0,0,1,205.21,144Z" fill="#093f68"/><path d="M215,149l-22.77,5.68s2.2,8.71,13,7S215,149,215,149Z" fill="#093f68"/><path d="M171.75,243a1,1,0,0,1-1-1V205.34a1,1,0,0,1,2,0V242A1,1,0,0,1,171.75,243Z" fill="#093f68"/><path d="M232.83,243a1,1,0,0,1-1-1V205.34a1,1,0,0,1,2,0V242A1,1,0,0,1,232.83,243Z" fill="#093f68"/><circle cx="219.24" cy="133" r="3.49" fill="#093f68"/><circle cx="186.44" cy="131.62" r="3.49" fill="#093f68"/><path d="M177.82,124.44a2,2,0,0,1-1.42-.59,2,2,0,0,1,0-2.82c3.1-3.1,10.86-7.37,18-1.31a2,2,0,0,1-2.58,3.06c-6.15-5.19-12.37.83-12.63,1.08A2,2,0,0,1,177.82,124.44Z" fill="#093f68"/><path d="M229.41,124.45a2,2,0,0,1-1.41-.59h0c-.26-.26-6.49-6.27-12.63-1.08a2,2,0,0,1-2.58-3.06c7.18-6.06,14.93-1.79,18,1.31a2,2,0,0,1-1.42,3.42Z" fill="#093f68"/><path d="M154.9,69.68a93.59,93.59,0,0,1,93.83,0v41.07a93.59,93.59,0,0,0-93.83,0Z" fill="#fd8c68" class="target-color"/><path d="M248.73,111.75a1,1,0,0,1-.5-.13,93,93,0,0,0-92.83,0,1,1,0,0,1-1,0,1,1,0,0,1-.5-.87V69.68a1,1,0,0,1,.5-.87,95,95,0,0,1,94.83,0,1,1,0,0,1,.5.87v41.07a1,1,0,0,1-1,1ZM201.81,97.21A94.73,94.73,0,0,1,247.73,109V70.26a93,93,0,0,0-91.83,0V109A94.72,94.72,0,0,1,201.81,97.21Z" fill="#093f68"/><path d="M248.73,100.68a.93.93,0,0,1-.5-.14,93,93,0,0,0-92.83,0,1,1,0,0,1-1.37-.36,1,1,0,0,1,.37-1.37,95,95,0,0,1,94.83,0,1,1,0,0,1-.5,1.87Z" fill="#093f68"/><circle cx="169.28" cy="93.37" r="6.3" fill="#ffbc0e"/><path d="M169.28,100.68a7.31,7.31,0,1,1,7.3-7.31A7.32,7.32,0,0,1,169.28,100.68Zm0-12.61a5.31,5.31,0,1,0,5.3,5.3A5.31,5.31,0,0,0,169.28,88.07Z" fill="#093f68"/><rect x="184.15" y="173.72" width="36.29" height="8.01" fill="#fd8c68" class="target-color"/><path d="M220.43,182.72H184.15a1,1,0,0,1-1-1v-8a1,1,0,0,1,1-1h36.28a1,1,0,0,1,1,1v8A1,1,0,0,1,220.43,182.72Zm-35.28-2h34.28v-6H185.15Z" fill="#093f68"/><path d="M202.29,243a1,1,0,0,1-1-1V173.72a1,1,0,0,1,2,0V242A1,1,0,0,1,202.29,243Z" fill="#093f68"/><path d="M195.46,198.38a3.32,3.32,0,1,1,3.31-3.32A3.32,3.32,0,0,1,195.46,198.38Zm0-4.64a1.32,1.32,0,1,0,1.31,1.32A1.32,1.32,0,0,0,195.46,193.74Z" fill="#093f68"/><path d="M195.46,216.9a3.32,3.32,0,1,1,3.31-3.32A3.32,3.32,0,0,1,195.46,216.9Zm0-4.63a1.32,1.32,0,1,0,1.31,1.31A1.32,1.32,0,0,0,195.46,212.27Z" fill="#093f68"/><path d="M195.46,235.42a3.32,3.32,0,1,1,3.31-3.31A3.32,3.32,0,0,1,195.46,235.42Zm0-4.63a1.32,1.32,0,1,0,1.31,1.32A1.32,1.32,0,0,0,195.46,230.79Z" fill="#093f68"/><rect x="209.17" y="204.16" width="18.36" height="8.17" fill="#fff"/><path d="M227.53,213.33H209.17a1,1,0,0,1-1-1v-8.17a1,1,0,0,1,1-1h18.36a1,1,0,0,1,1,1v8.17A1,1,0,0,1,227.53,213.33Zm-17.36-2h16.36v-6.17H210.17Z" fill="#093f68"/><rect x="122.18" y="214.36" width="4.13" height="7.95" fill="#ffbc0e"/><path d="M126.31,223.3h-4.13a1,1,0,0,1-1-1v-7.94a1,1,0,0,1,1-1h4.13a1,1,0,0,1,1,1v7.94A1,1,0,0,1,126.31,223.3Zm-3.13-2h2.13v-5.94h-2.13Z" fill="#093f68"/><path d="M103.31,235.14s.77-16.35,20.94-16.35,20.93,16.35,20.93,16.35Z" fill="#ffbc0e"/><path d="M145.18,236.14H103.31a1,1,0,0,1-.72-.31,1,1,0,0,1-.28-.74c0-.17,1-17.3,21.94-17.3s21.92,17.13,21.93,17.3a1,1,0,0,1-.28.74A1,1,0,0,1,145.18,236.14Zm-40.75-2h39.63c-.55-3.5-3.58-14.35-19.81-14.35S105,230.64,104.43,234.14Z" fill="#093f68"/><path d="M102.72,235.14h43a3.84,3.84,0,0,1,3.84,3.84v4a0,0,0,0,1,0,0H98.88a0,0,0,0,1,0,0v-4A3.84,3.84,0,0,1,102.72,235.14Z" fill="#ffbc0e"/><path d="M149.61,243.93H98.88a1,1,0,0,1-1-1v-4a4.84,4.84,0,0,1,4.84-4.84h43.05a4.84,4.84,0,0,1,4.84,4.84v4A1,1,0,0,1,149.61,243.93Zm-49.73-2h48.73v-3a2.84,2.84,0,0,0-2.84-2.84H102.72A2.84,2.84,0,0,0,99.88,239Z" fill="#093f68"/><circle cx="124.25" cy="210.84" r="5.5" fill="#ffbc0e"/><path d="M124.25,217.34a6.5,6.5,0,1,1,6.5-6.5A6.51,6.51,0,0,1,124.25,217.34Zm0-11a4.5,4.5,0,1,0,4.5,4.5A4.51,4.51,0,0,0,124.25,206.34Z" fill="#093f68"/><path d="M268,243.93H94.24a1,1,0,0,1,0-2H268a1,1,0,0,1,0,2Z" fill="#093f68"/><polygon points="246.57 221.07 241.52 242.93 261.16 242.93 263.44 221.81 246.57 221.07" fill="#fd8c68" class="target-color"/><path d="M261.16,243.93H241.52a1,1,0,0,1-.79-.38,1,1,0,0,1-.19-.84l5.06-21.86a1,1,0,0,1,1-.78l16.87.74a1,1,0,0,1,.95,1.11L262.15,243A1,1,0,0,1,261.16,243.93Zm-18.39-2h17.49l2.07-19.17-15-.65Z" fill="#093f68"/><path d="M246.2,216c1.5-7.92,3.78-18.18,5.5-17.82,2.78.59,1.78,2.81.16,9.52,0,0,3.6-16,10.16-15.45,4.7.41,8.93,1.45,8.25,7.68a92.59,92.59,0,0,1-5.67,21.72c-1.9,4.37-6.5,6.22-11.3,5.52S245.25,221.05,246.2,216Z" fill="#ffc9b0"/><path d="M255.25,228.35a15,15,0,0,1-2.09-.15,9.07,9.07,0,0,1-6-3.86,11.31,11.31,0,0,1-1.91-8.49h0c3.19-16.8,4.89-17.93,5.53-18.36a1.47,1.47,0,0,1,1.16-.24,3.08,3.08,0,0,1,2.08,1.24c2.37-5,5.1-7.45,8.13-7.2s6.08.81,7.82,2.94c1.18,1.42,1.61,3.34,1.34,5.85a93.76,93.76,0,0,1-5.75,22C263.81,226,259.9,228.35,255.25,228.35Zm-3.51-29.09c-.47.55-2,3.29-4.56,17h0a9.21,9.21,0,0,0,1.57,7,7.06,7.06,0,0,0,4.7,3c4.7.69,8.62-1.21,10.23-4.93a91,91,0,0,0,5.6-21.43,5.68,5.68,0,0,0-.89-4.36c-1.28-1.56-3.86-2-6.46-2.22-4.28-.37-7.55,8.71-8.8,13.48-.09.39-.19.79-.29,1.22a1,1,0,0,1-2-.46s.07-.31.18-.76l.42-1.68c.68-2.71,1.22-4.85.82-5.48C252.28,199.54,252.18,199.39,251.74,199.26ZM246.2,216h0Z" fill="#093f68"/><path d="M258.28,219.83a1.15,1.15,0,0,1-.26,0,1,1,0,0,1-.71-1.23c1.48-5.57-5.87-9.92-5.95-10a1,1,0,0,1,1-1.73c.36.2,8.75,5.15,6.88,12.21A1,1,0,0,1,258.28,219.83Z" fill="#093f68"/></g></svg>