<?xml version="1.0" encoding="UTF-8" standalone="no"?>
<svg
   version="1.0"
   width="300.000000pt"
   height="300.000000pt"
   viewBox="0 0 300.000000 300.000000"
   preserveAspectRatio="xMidYMid meet"
   id="svg3"
   sodipodi:docname="cryptowl.svg"
   inkscape:version="1.4 (e7c3feb1, 2024-10-09)"
   inkscape:export-filename="cryptowl-x1024.png"
   inkscape:export-xdpi="245.75999"
   inkscape:export-ydpi="245.75999"
   xmlns:inkscape="http://www.inkscape.org/namespaces/inkscape"
   xmlns:sodipodi="http://sodipodi.sourceforge.net/DTD/sodipodi-0.dtd"
   xmlns="http://www.w3.org/2000/svg"
   xmlns:svg="http://www.w3.org/2000/svg">
  <defs
     id="defs3" />
  <sodipodi:namedview
     id="namedview3"
     pagecolor="#ffffff"
     bordercolor="#000000"
     borderopacity="0.25"
     inkscape:showpageshadow="2"
     inkscape:pageopacity="0.0"
     inkscape:pagecheckerboard="0"
     inkscape:deskcolor="#d1d1d1"
     inkscape:document-units="pt"
     inkscape:zoom="0.86727104"
     inkscape:cx="93.396408"
     inkscape:cy="168.92066"
     inkscape:window-width="1440"
     inkscape:window-height="754"
     inkscape:window-x="94"
     inkscape:window-y="354"
     inkscape:window-maximized="0"
     inkscape:current-layer="g3" />
  <g
     transform="matrix(0.1,0,0,-0.1,-8.6478156,310.27044)"
     fill="#000000"
     stroke="none"
     id="g3"
     style="fill:#311b92;fill-opacity:1">
    <path
       d="m 920,2666 c 0,-5 94,-84 447,-375 116,-96 213,-174 215,-175 8,-2 658,538 658,546 0,4 -297,8 -660,8 -363,0 -660,-2 -660,-4 z"
       id="path2"
       style="display:none;fill:#311b92;fill-opacity:1" />
    <g
       transform="matrix(1.0743172,0,0,1.0743172,95.865954,-54.692098)"
       fill="#000000"
       stroke="none"
       id="g2"
       style="fill:#704f3e;fill-opacity:1">
      <path
         d="m 1573,2761 c -98,-63 -165,-160 -181,-264 -17,-111 -10,-123 98,-147 102,-23 207,-85 300,-179 135,-135 200,-286 200,-467 0,-87 -32,-239 -56,-264 -8,-8 -14,-10 -14,-5 -1,6 -3,49 -5,96 -6,105 -40,228 -86,305 -50,84 -163,193 -284,273 -59,38 -223,129 -366,201 -142,72 -285,151 -318,176 -52,39 -91,92 -91,123 0,23 -16,9 -52,-47 -46,-71 -64,-121 -77,-213 -5,-39 -13,-75 -18,-79 -4,-4 -44,-21 -88,-38 -44,-17 -111,-45 -149,-62 l -69,-32 7,-77 c 25,-292 121,-634 249,-891 166,-332 417,-627 754,-883 34,-26 66,-47 71,-47 24,0 224,163 355,290 417,403 664,929 722,1536 l 7,72 -59,27 c -146,68 -364,144 -476,167 -55,12 -63,17 -97,63 -144,197 -193,288 -194,358 0,29 -4,47 -11,47 -7,0 -39,-17 -72,-39 z m 549,-641 c 133,-49 187,-73 191,-84 5,-15 -28,-211 -54,-316 -84,-337 -244,-657 -457,-910 -88,-105 -249,-266 -258,-258 -3,3 2,33 10,66 19,70 21,204 5,235 -19,38 -61,76 -93,86 -17,6 -75,15 -130,21 -292,31 -491,143 -646,363 -54,76 -96,183 -141,357 -37,143 -73,350 -62,361 13,13 154,69 173,69 9,0 31,-21 47,-47 17,-27 43,-59 57,-72 30,-28 31,-40 11,-118 -30,-113 -16,-242 38,-351 32,-65 149,-202 162,-190 4,4 -3,31 -16,60 -20,44 -24,69 -24,154 0,96 2,103 38,178 21,42 45,80 52,82 13,5 75,-21 75,-32 0,-3 -11,-20 -23,-37 -57,-77 -76,-212 -43,-305 46,-128 176,-222 310,-222 76,0 173,-18 216,-40 70,-36 119,-119 106,-181 -9,-47 16,-36 86,40 55,59 128,179 128,209 0,6 18,26 40,45 55,46 124,137 154,200 77,164 87,296 35,451 -16,50 -43,115 -60,145 -45,84 -46,84 73,41 z m -846,-427 c 55,-35 74,-75 53,-112 -21,-37 -60,-54 -94,-41 -15,6 -30,8 -33,5 -13,-12 21,-86 52,-113 88,-77 225,-30 243,83 6,39 18,43 51,16 37,-32 27,-72 -33,-139 -43,-49 -98,-73 -160,-73 -131,0 -229,96 -229,225 0,63 9,88 51,144 29,39 44,40 99,5 z"
         id="path1"
         style="fill:#704f3e;fill-opacity:1" />
    </g>
  </g>
</svg>
