<?xml version="1.0" encoding="UTF-8" standalone="no"?>
<!-- Created with Inkscape (http://www.inkscape.org/) -->

<svg
   width="350mm"
   height="100mm"
   viewBox="0 0 350 100"
   version="1.1"
   id="svg1"
   inkscape:version="1.4 (e7c3feb1, 2024-10-09)"
   sodipodi:docname="cryptowl-full.svg"
   xmlns:inkscape="http://www.inkscape.org/namespaces/inkscape"
   xmlns:sodipodi="http://sodipodi.sourceforge.net/DTD/sodipodi-0.dtd"
   xmlns:xlink="http://www.w3.org/1999/xlink"
   xmlns="http://www.w3.org/2000/svg"
   xmlns:svg="http://www.w3.org/2000/svg">
  <sodipodi:namedview
     id="namedview1"
     pagecolor="#ffffff"
     bordercolor="#000000"
     borderopacity="0.25"
     inkscape:showpageshadow="2"
     inkscape:pageopacity="0.0"
     inkscape:pagecheckerboard="0"
     inkscape:deskcolor="#d1d1d1"
     inkscape:document-units="mm"
     inkscape:zoom="0.23368845"
     inkscape:cx="481.41018"
     inkscape:cy="282.42731"
     inkscape:window-width="1104"
     inkscape:window-height="645"
     inkscape:window-x="199"
     inkscape:window-y="25"
     inkscape:window-maximized="0"
     inkscape:current-layer="layer1" />
  <defs
     id="defs1">
    <linearGradient
       inkscape:collect="always"
       xlink:href="#linearGradient8"
       id="linearGradient9"
       x1="3386.009"
       y1="5340.1226"
       x2="7915.4043"
       y2="2118.1167"
       gradientUnits="userSpaceOnUse" />
    <linearGradient
       id="linearGradient8"
       inkscape:collect="always">
      <stop
         style="stop-color:#030e2b;stop-opacity:0.94293481;"
         offset="0.28503561"
         id="stop8" />
      <stop
         style="stop-color:#076a31;stop-opacity:0;"
         offset="1"
         id="stop9" />
    </linearGradient>
  </defs>
  <g
     inkscape:label="Layer 1"
     inkscape:groupmode="layer"
     id="layer1">
    <g
       transform="matrix(0.00881945,0,0,-0.0088126,16.573842,89.467192)"
       fill="#000000"
       stroke="none"
       id="g3"
       style="opacity:1">
      <path
         d="m 4210,7960 c -69,-5 -216,-13 -326,-19 -111,-6 -225,-16 -254,-21 -29,-6 -79,-10 -112,-10 -55,0 -130,-9 -358,-41 -47,-6 -119,-15 -160,-19 -41,-4 -100,-12 -130,-18 -30,-6 -100,-18 -155,-27 -111,-18 -184,-30 -295,-52 -41,-8 -95,-18 -120,-23 -78,-14 -163,-31 -220,-45 -30,-8 -84,-20 -120,-28 -157,-36 -208,-48 -255,-62 -27,-7 -79,-21 -115,-30 -177,-46 -177,-46 -330,-90 -25,-7 -58,-17 -75,-22 l -30,-8 V 5680 c 0,-1430 3,-1780 14,-1845 7,-44 16,-114 21,-155 9,-94 43,-280 72,-395 5,-22 14,-60 19,-85 8,-41 26,-106 65,-235 8,-27 19,-63 24,-80 8,-28 16,-53 45,-135 97,-273 253,-600 397,-835 104,-171 150,-239 286,-421 34,-46 71,-94 81,-107 163,-194 234,-270 391,-422 208,-201 222,-210 235,-148 4,15 12,44 20,63 7,19 27,82 45,140 18,58 38,121 45,140 7,19 27,82 45,140 18,58 38,121 45,140 7,19 18,51 24,70 7,19 17,49 21,65 10,32 60,172 78,218 7,16 12,32 12,37 0,5 7,26 16,47 29,66 42,96 80,188 35,87 83,189 108,230 33,56 66,102 85,119 24,22 40,14 66,-37 9,-18 25,-45 35,-62 11,-16 24,-39 30,-50 6,-11 19,-33 30,-50 11,-16 23,-37 27,-45 4,-8 59,-103 123,-210 64,-107 119,-202 123,-210 4,-8 16,-28 27,-45 11,-16 24,-39 30,-50 6,-11 19,-33 30,-50 11,-16 23,-37 27,-45 4,-8 59,-103 123,-211 64,-107 120,-202 123,-210 4,-8 16,-27 27,-44 11,-16 24,-39 30,-50 6,-11 19,-33 30,-50 11,-16 23,-37 26,-45 4,-8 13,-22 19,-30 7,-8 27,-42 45,-75 18,-33 38,-67 44,-75 6,-8 22,-35 36,-60 34,-65 54,-76 70,-37 10,23 15,31 63,105 15,24 27,45 27,49 0,3 14,25 30,50 17,24 30,46 30,48 0,3 262,448 280,475 6,8 15,24 20,35 6,11 19,34 30,50 11,17 24,39 29,50 5,11 21,37 35,58 14,21 26,40 26,41 0,2 40,71 88,153 48,81 91,155 95,163 4,8 16,29 27,45 11,17 24,39 30,50 6,11 19,34 30,50 11,17 24,39 30,50 6,11 16,29 23,40 7,12 41,69 76,128 78,132 88,135 148,45 58,-90 108,-192 173,-353 17,-44 37,-89 43,-100 5,-11 14,-33 18,-50 4,-16 17,-55 29,-85 41,-106 51,-135 60,-165 4,-16 14,-46 21,-65 6,-19 17,-51 24,-70 7,-19 27,-82 45,-140 18,-58 38,-121 45,-140 7,-19 27,-82 45,-140 17,-58 38,-120 46,-138 8,-18 14,-39 14,-48 0,-8 9,-33 21,-55 l 20,-41 57,53 c 352,326 487,480 758,857 65,91 64,90 147,226 120,199 317,590 317,631 0,7 4,16 10,20 5,3 14,20 19,38 5,18 19,57 31,87 70,184 152,467 194,670 68,333 81,450 95,880 11,301 14,3161 5,3198 -4,14 -16,24 -33,28 -14,3 -48,11 -76,19 -94,27 -150,43 -215,60 -36,9 -87,23 -115,30 -121,34 -165,45 -235,60 -41,10 -97,23 -125,30 -87,22 -274,61 -425,90 -47,9 -113,22 -147,30 -34,8 -74,15 -89,15 -16,0 -62,6 -104,14 -196,37 -250,46 -281,46 -19,0 -77,6 -129,14 -125,20 -335,44 -435,51 -44,3 -114,10 -155,15 -41,5 -115,9 -165,10 -49,0 -130,5 -180,10 -123,13 -632,19 -785,10 z m 605,-730 c 154,-6 343,-17 420,-25 77,-8 160,-15 185,-15 25,0 101,-7 170,-16 69,-8 177,-22 240,-30 63,-8 154,-21 201,-29 47,-8 97,-15 110,-15 13,0 56,-6 94,-14 39,-8 113,-22 165,-31 104,-17 220,-40 290,-57 25,-6 65,-14 90,-18 25,-4 68,-13 95,-20 54,-13 132,-32 210,-51 28,-7 58,-16 68,-21 16,-8 17,-83 16,-1376 -1,-1337 -4,-1539 -28,-1712 -20,-138 -61,-352 -88,-450 -8,-30 -21,-80 -29,-110 -9,-30 -20,-68 -26,-85 -5,-16 -13,-43 -18,-60 -17,-61 -40,-122 -79,-208 -22,-50 -41,-54 -41,-10 0,15 -6,49 -14,77 -8,28 -21,78 -30,111 -40,164 -48,193 -61,236 -8,26 -15,55 -15,64 0,10 -6,41 -14,69 -8,28 -21,78 -30,111 -8,33 -22,89 -31,125 -9,36 -23,92 -32,125 -8,33 -21,87 -30,120 -8,33 -21,85 -28,115 -7,30 -19,75 -26,100 -6,25 -15,61 -19,80 -7,32 -37,152 -76,305 -9,33 -22,85 -29,115 -7,30 -19,75 -26,100 -6,25 -18,72 -26,105 -14,62 -22,95 -43,180 -27,112 -43,172 -56,217 -8,26 -14,56 -14,68 0,27 -25,36 -49,19 -90,-65 -214,-165 -218,-175 -3,-7 2,-26 10,-41 48,-95 89,-211 124,-353 13,-57 18,-113 17,-235 0,-155 -1,-162 -30,-230 -79,-185 -208,-306 -404,-380 -91,-34 -356,-29 -487,9 -245,70 -403,282 -403,537 v 90 l 37,32 c 20,18 60,50 88,72 71,54 349,277 355,285 3,3 33,27 67,53 34,26 68,53 75,60 7,6 58,48 113,92 55,44 102,82 105,85 3,3 27,24 55,45 27,22 104,85 170,140 66,55 140,116 165,135 25,19 56,44 70,56 14,13 48,41 75,64 28,23 61,52 75,64 59,51 227,192 250,211 55,43 218,213 246,256 77,115 133,297 121,391 -15,118 -72,288 -96,288 -5,0 -26,-28 -49,-62 -87,-136 -273,-318 -462,-452 -118,-84 -213,-147 -240,-159 -8,-4 -28,-16 -45,-26 -43,-27 -116,-67 -225,-122 l -94,-47 -51,20 c -27,11 -63,23 -80,28 -16,4 -41,12 -55,18 -58,24 -296,90 -370,102 -25,4 -70,13 -100,18 -293,58 416.6402,622.1162 134.6402,562.1162 C 5116.6402,6742.1162 3936,6170 3926,6170 c -11,0 -44,-7 -75,-16 -31,-8 -81,-22 -111,-31 -30,-8 -68,-20 -85,-25 -16,-6 -43,-14 -60,-18 -16,-5 -68,-22 -115,-39 -47,-17 -94,-31 -105,-31 -27,0 -309,144 -346,176 -8,8 -19,14 -24,14 -13,0 -234,148 -321,216 -136,105 -383,363 -384,401 -1,9 -36,53 -43,53 -8,0 -36,-58 -60,-125 -29,-83 -32,-294 -3,-370 65,-177 149,-281 391,-485 55,-46 102,-87 105,-90 3,-3 30,-25 60,-50 72,-59 97,-80 126,-107 14,-13 57,-49 97,-80 40,-32 74,-60 77,-63 3,-3 27,-24 55,-45 27,-22 92,-75 145,-119 133,-110 167,-138 229,-188 30,-24 71,-56 91,-73 670,-538 658,-528 662,-560 2,-11 -1,-62 -5,-112 -17,-201 -122,-361 -294,-448 -116,-58 -174,-69 -368,-69 -190,-1 -187,-1 -305,53 -94,44 -242,172 -271,235 -6,12 -21,41 -34,66 -13,25 -24,54 -25,65 0,11 -7,31 -15,45 -23,39 -20,263 5,375 31,144 54,217 101,321 27,60 32,78 30,101 0,6 -48,46 -106,89 -58,43 -105,82 -105,86 0,4 -9,8 -20,8 -20,0 -21,-4 -56,-142 -8,-32 -21,-85 -29,-118 -8,-33 -22,-87 -30,-120 -8,-33 -22,-87 -30,-120 -8,-33 -22,-87 -30,-120 -26,-103 -62,-249 -85,-345 -7,-27 -16,-66 -20,-85 -4,-19 -18,-71 -30,-115 -12,-44 -26,-96 -30,-115 -10,-46 -29,-122 -45,-185 -8,-27 -21,-77 -29,-110 -8,-33 -20,-80 -27,-105 -7,-25 -16,-63 -20,-85 -16,-81 -37,-164 -43,-174 -4,-6 -11,-32 -16,-59 -8,-43 -17,-80 -51,-212 -6,-25 -18,-72 -26,-105 -22,-91 -49,-170 -58,-170 -5,0 -12,11 -16,25 -4,14 -17,50 -29,80 -12,30 -25,69 -30,85 -11,39 -29,91 -46,133 -8,18 -14,41 -14,52 0,11 -6,37 -14,57 -21,59 -66,264 -90,413 -46,282 -46,277 -46,1777 v 1422 l 43,12 c 49,13 145,36 202,48 22,5 60,13 85,19 25,6 81,18 125,27 44,9 109,23 145,30 107,22 181,36 250,45 36,5 81,14 100,20 19,5 48,10 65,10 16,0 68,6 115,14 78,14 174,27 410,56 47,6 146,15 220,20 74,5 146,12 160,16 20,5 463,27 680,33 30,1 181,-3 335,-9 z M 4480,4310 c 29,-38 54,-38 90,1 35,39 57,33 66,-18 18,-102 83,-229 157,-307 31,-33 57,-67 57,-74 0,-13 -22,-49 -146,-237 -32,-49 -61,-94 -63,-99 -2,-4 -22,-36 -45,-70 -23,-33 -45,-69 -49,-78 -11,-30 -36,-9 -93,78 -30,46 -80,123 -111,172 -32,48 -60,91 -62,96 -2,4 -23,37 -47,72 l -44,65 43,47 c 24,26 57,65 73,87 33,42 94,166 94,188 0,29 33,107 44,107 7,0 23,-13 36,-30 z"
         id="path1"
         style="display:inline;fill:url(#linearGradient9);fill-opacity:0.942935"
         sodipodi:nodetypes="cccscssccccccccccscccccccccccccsssscccsccccccscssscscscccscccsscccscscccssscscscscccccccccssscsscccccscscccccccccccsscsccscccssscssscccsccscccccccssccsscsccscccsccccsccccccccsccccscsscssccccccsccccccccccccsccccsscsccscccscccsccccccccccscccccssscsssccssccsscccccsssccsccscccsscccsccsccsccscscccccccccccssc" />
      <path
         d="m 3305,4932 c -15,-10 -69,-83 -83,-112 -36,-75 -52,-155 -52,-266 0,-114 3,-128 49,-222 33,-67 157,-159 238,-175 145,-30 161,-30 268,-2 75,20 115,43 171,101 58,59 107,150 94,174 -5,8 -30,31 -55,50 -26,19 -55,43 -66,53 -29,26 -45,21 -92,-27 -32,-33 -52,-45 -85,-50 -65,-10 -115,8 -156,56 -33,38 -36,47 -36,103 0,60 14,95 48,121 23,17 6,36 -110,123 -110,83 -116,86 -133,73 z"
         id="path2"
         style="fill:#030e2b;fill-opacity:0.941176" />
      <path
         d="m 5698,4927 c -7,-7 -53,-43 -103,-81 -49,-37 -94,-74 -99,-83 -5,-10 0,-23 17,-41 55,-59 52,-158 -7,-220 -70,-74 -196,-62 -255,24 -27,39 -27,39 -129,-36 -70,-52 -76,-73 -40,-142 28,-54 111,-138 163,-164 22,-11 75,-29 118,-38 79,-19 97,-18 222,9 64,14 156,68 200,117 55,61 79,113 96,207 25,140 -24,328 -110,423 -36,40 -52,46 -73,25 z"
         id="path3"
         style="fill:#030e2b;fill-opacity:0.941176" />
    </g>
    <text
       xml:space="preserve"
       style="font-style:normal;font-variant:normal;font-weight:normal;font-stretch:normal;font-size:50.8px;font-family:'Gill Sans';-inkscape-font-specification:'Gill Sans';text-align:start;writing-mode:lr-tb;direction:ltr;text-anchor:start;opacity:1;fill:#1a1a1a;fill-opacity:0.941176;stroke-width:0.264583"
       x="109.37095"
       y="66.386749"
       id="text1"
       inkscape:transform-center-x="1.4693786"
       inkscape:transform-center-y="14.693786"><tspan
         sodipodi:role="line"
         id="tspan1"
         style="font-style:normal;font-variant:normal;font-weight:normal;font-stretch:normal;font-size:50.8px;font-family:'PingFang SC';-inkscape-font-specification:'PingFang SC';stroke-width:0.264583;fill:#1a1a1a"
         x="109.37095"
         y="66.386749"><tspan
           style="font-style:normal;font-variant:normal;font-weight:bold;font-stretch:normal;font-family:'PingFang SC';-inkscape-font-specification:'PingFang SC';fill:#1a1a1a"
           id="tspan3">Crypt</tspan><tspan
           style="font-style:normal;font-variant:normal;font-weight:normal;font-stretch:normal;font-family:'PingFang SC';-inkscape-font-specification:'PingFang SC';fill:#1a1a1a"
           id="tspan2">owl</tspan></tspan></text>
  </g>
</svg>
