<?xml version="1.0" encoding="UTF-8" standalone="no"?>
<svg
   version="1.0"
   width="300.000000pt"
   height="300.000000pt"
   viewBox="0 0 300.000000 300.000000"
   preserveAspectRatio="xMidYMid meet"
   id="svg3"
   sodipodi:docname="gP7CGA01.svg"
   inkscape:version="1.4 (e7c3feb1, 2024-10-09)"
   xmlns:inkscape="http://www.inkscape.org/namespaces/inkscape"
   xmlns:sodipodi="http://sodipodi.sourceforge.net/DTD/sodipodi-0.dtd"
   xmlns="http://www.w3.org/2000/svg"
   xmlns:svg="http://www.w3.org/2000/svg">
  <defs
     id="defs3" />
  <sodipodi:namedview
     id="namedview3"
     pagecolor="#ffffff"
     bordercolor="#000000"
     borderopacity="0.25"
     inkscape:showpageshadow="2"
     inkscape:pageopacity="0.0"
     inkscape:pagecheckerboard="0"
     inkscape:deskcolor="#d1d1d1"
     inkscape:document-units="pt"
     inkscape:zoom="0.86727104"
     inkscape:cx="93.396408"
     inkscape:cy="168.92066"
     inkscape:window-width="1440"
     inkscape:window-height="758"
     inkscape:window-x="0"
     inkscape:window-y="25"
     inkscape:window-maximized="1"
     inkscape:current-layer="g3" />
  <g
     transform="matrix(0.1,0,0,-0.1,-8.6478156,310.27044)"
     fill="#000000"
     stroke="none"
     id="g3"
     style="fill:#311b92;fill-opacity:1">
    <path
       d="m 495,2791 c -36,-50 -64,-94 -61,-99 3,-5 50,-37 104,-72 l 100,-63 -47,-62 c -230,-300 -93,-723 268,-829 62,-18 203,-21 270,-5 66,15 147,56 208,106 30,25 56,43 57,41 1,-2 43,-74 92,-160 49,-87 93,-156 98,-155 5,2 47,68 93,148 46,79 88,150 92,158 7,12 19,6 56,-27 154,-135 405,-162 589,-64 116,61 236,216 265,342 15,63 13,186 -3,245 -18,69 -70,168 -111,214 -19,21 -35,41 -35,43 0,3 47,35 105,72 72,47 103,72 98,80 -38,63 -128,174 -137,169 -6,-4 -231,-189 -501,-412 -269,-222 -495,-408 -502,-413 -8,-6 -71,41 -196,144 -101,84 -233,194 -293,243 -132,109 -515,424 -530,437 -8,6 -34,-21 -79,-81 z m 441,-425 c 76,-50 182,-117 234,-151 52,-34 127,-81 167,-106 47,-28 72,-51 73,-63 0,-10 -30,-48 -67,-85 -51,-51 -83,-73 -126,-89 -119,-45 -217,-39 -330,21 -186,98 -253,338 -146,525 21,37 34,50 43,45 7,-4 75,-48 152,-97 z m 1485,63 c 31,-44 59,-141 59,-205 0,-30 -9,-83 -21,-117 -48,-142 -156,-233 -307,-259 -133,-23 -277,36 -359,146 -24,32 -41,61 -38,65 16,15 622,399 632,400 6,1 22,-13 34,-30 z"
       id="path1"
       style="fill:#311b92;fill-opacity:1" />
    <path
       d="m 920,2666 c 0,-5 94,-84 447,-375 116,-96 213,-174 215,-175 8,-2 658,538 658,546 0,4 -297,8 -660,8 -363,0 -660,-2 -660,-4 z"
       id="path2"
       style="display:none;fill:#311b92;fill-opacity:1" />
    <path
       d="m 550,1786 c 0,-20 74,-245 107,-326 38,-93 133,-285 181,-367 62,-105 111,-174 255,-358 84,-108 260,-282 385,-383 l 104,-83 36,27 c 171,127 404,362 536,537 178,238 321,507 406,766 73,222 73,216 -4,143 -138,-129 -349,-184 -529,-137 -55,14 -168,68 -214,101 -25,18 -13,34 -128,-166 -43,-74 -84,-143 -90,-153 -11,-16 -19,-7 -70,80 -32,54 -66,112 -75,128 -9,17 -29,52 -44,78 l -27,48 -32,-21 c -62,-41 -144,-79 -204,-94 -76,-20 -211,-20 -283,-1 -84,22 -192,81 -254,139 -31,28 -56,47 -56,42 z m 1303,-176 c 74,-44 179,-73 282,-77 116,-6 198,10 301,57 37,17 68,29 70,28 1,-2 -18,-52 -42,-113 -159,-395 -417,-764 -718,-1027 -50,-43 -94,-78 -98,-78 -4,0 -8,212 -8,471 v 471 l 64,112 c 117,205 98,186 149,156 z"
       id="path3"
       style="display:inline;fill:#311b92;fill-opacity:1" />
  </g>
</svg>
