<?xml version="1.0" encoding="UTF-8" standalone="no"?>
<!-- Created with Inkscape (http://www.inkscape.org/) -->

<svg
   width="350mm"
   height="100mm"
   viewBox="0 0 350 100"
   version="1.1"
   id="svg1"
   inkscape:version="1.4 (e7c3feb1, 2024-10-09)"
   sodipodi:docname="cryptowl-full.svg"
   xml:space="preserve"
   xmlns:inkscape="http://www.inkscape.org/namespaces/inkscape"
   xmlns:sodipodi="http://sodipodi.sourceforge.net/DTD/sodipodi-0.dtd"
   xmlns="http://www.w3.org/2000/svg"
   xmlns:svg="http://www.w3.org/2000/svg"><sodipodi:namedview
     id="namedview1"
     pagecolor="#ffffff"
     bordercolor="#000000"
     borderopacity="0.25"
     inkscape:showpageshadow="2"
     inkscape:pageopacity="0.0"
     inkscape:pagecheckerboard="0"
     inkscape:deskcolor="#d1d1d1"
     inkscape:document-units="mm"
     inkscape:zoom="0.31510686"
     inkscape:cx="672.78764"
     inkscape:cy="212.62628"
     inkscape:window-width="1104"
     inkscape:window-height="645"
     inkscape:window-x="196"
     inkscape:window-y="25"
     inkscape:window-maximized="0"
     inkscape:current-layer="layer1" /><defs
     id="defs1" /><g
     inkscape:label="Layer 1"
     inkscape:groupmode="layer"
     id="layer1"><path
       style="font-size:50.8px;font-family:Queensides;-inkscape-font-specification:Queensides;fill:#1a1a1a;fill-opacity:0.941176;stroke-width:0.264583"
       d="m 112.93801,71.656775 q -5.23379,0 -9.57461,-2.604492 -4.316017,-2.604492 -6.895704,-6.970117 -2.579688,-4.39043 -2.579688,-9.673828 0,-5.308203 2.579688,-9.673828 2.579687,-4.365625 6.895704,-6.970117 4.34082,-2.604492 9.57461,-2.604492 3.6959,0 6.67246,1.190625 2.97656,1.190625 5.87871,3.522265 l -1.26504,1.612305 q -1.51309,-1.21543 -2.80293,-1.984375 -1.26504,-0.768945 -2.92695,-1.364258 -2.67891,-0.917773 -5.55625,-0.917773 -4.71289,0 -8.58242,2.306836 -3.84473,2.306836 -6.151566,6.225976 -2.282032,3.894336 -2.282032,8.656836 0,4.7625 2.282032,8.656836 2.306836,3.894336 6.151566,6.225976 3.86953,2.306836 8.58242,2.306836 3.175,0 6.15156,-1.16582 3.00137,-1.16582 5.45703,-3.447852 l 0.74414,-0.719336 1.41387,1.513086 q -1.68672,1.5875 -3.22461,2.654102 -1.51309,1.066601 -3.54707,1.885156 -3.37344,1.339453 -6.99492,1.339453 z m 25.30078,-17.983398 q 2.50527,0 4.88652,-0.272852 0.14883,-0.0248 0.22324,-0.0248 0.0744,-0.02481 0.14883,-0.02481 0.0744,-0.02481 0.22324,-0.04961 3.54707,-0.694532 5.55625,-2.852539 1.28985,-1.438672 1.83555,-3.150196 0.37207,-1.11621 0.37207,-2.257226 0,-0.570508 -0.0992,-1.141016 -0.34726,-2.108398 -2.00918,-3.770312 -1.68672,-1.5875 -3.49746,-2.356445 -1.78594,-0.79375 -3.74551,-1.041797 -1.93476,-0.272852 -3.99355,-0.272852 l -4.44004,0.07441 v 17.09043 q 0.76895,0 2.08359,0.0248 z m 15.92461,16.867187 h -2.43086 L 142.5548,55.558533 q -2.00918,0.173633 -4.21679,0.173633 l -2.57969,-0.02481 q -0.96738,-0.0248 -2.05879,-0.0248 v 14.858007 h -2.03398 V 34.474549 h 1.11621 q 1.56269,0 2.70371,-0.0248 l 2.70371,-0.04961 q 2.25723,0 4.41523,0.297656 2.15801,0.272852 4.192,1.21543 2.05878,0.917773 3.99355,2.75332 2.15801,2.108399 2.60449,4.886524 0.12403,0.74414 0.12403,1.488281 0,1.463476 -0.44649,2.902148 -0.69453,2.133203 -2.33164,3.919141 -2.33164,2.530078 -6.00273,3.348633 l 8.58242,14.039453 z m 13.84101,0 h -2.05879 V 52.63158 q -1.95957,-3.224609 -3.02617,-4.960937 -1.04179,-1.761133 -1.63711,-2.703711 -0.5705,-0.942578 -1.0914,-1.810742 -0.57051,-0.892969 -1.5875,-2.554883 -0.99219,-1.686719 -2.97657,-4.936133 l -0.76894,-1.16582 2.43086,-0.02481 9.69863,15.899805 9.67383,-15.899805 2.38125,0.02481 -11.03809,18.132226 z m 21.1584,-16.916796 q 2.77813,0 5.33301,-0.372071 3.57188,-0.694531 5.55625,-2.852539 1.28984,-1.438672 1.83555,-3.150195 0.37207,-1.116211 0.37207,-2.257226 0,-0.570508 -0.0992,-1.141016 -0.32246,-2.108398 -2.00918,-3.770313 -1.68672,-1.587499 -3.49746,-2.356445 -1.78594,-0.79375 -3.74551,-1.041797 -1.93477,-0.272851 -3.99355,-0.272851 l -4.41524,0.07441 v 17.090429 q 0.76895,0 2.05879,0.02481 z m -4.66328,16.916796 h -2.05879 V 34.42494 h 1.11621 q 1.5627,0 2.72852,-0.02481 l 2.70371,-0.04961 q 2.25723,0 4.39043,0.297656 2.15801,0.272852 4.2168,1.21543 2.05879,0.917773 3.96875,2.728515 2.158,2.133203 2.60449,4.911328 0.12402,0.744141 0.12402,1.488282 0,1.463476 -0.44648,2.902148 -0.66973,2.133203 -2.33164,3.91914 -2.40606,2.629297 -6.67246,3.472657 -2.87735,0.396875 -5.90352,0.396875 l -2.40605,-0.02481 q -0.94258,-0.02481 -2.03399,-0.02481 z m 30.78261,0 h -2.03398 V 36.533338 h -9.525 v -2.058789 h 21.08398 v 2.058789 h -9.525 z m 19.0252,-1.934765 q 2.90215,0 5.3082,-1.413867 2.40606,-1.438672 3.81992,-3.844727 1.41387,-2.430859 1.41387,-5.407422 0,-2.976562 -1.41387,-5.382617 -1.41386,-2.430859 -3.81992,-3.844726 -2.38125,-1.438672 -5.3082,-1.438672 -2.92695,0 -5.33301,1.438672 -2.38125,1.413867 -3.81992,3.844726 -1.41387,2.406055 -1.41387,5.382617 0,2.926953 1.41387,5.357813 1.41387,2.430859 3.79512,3.869531 2.40605,1.438672 5.35781,1.438672 z m 0,2.058789 q -3.47266,0 -6.35,-1.736328 -2.85254,-1.736328 -4.56406,-4.613672 -1.68672,-2.902149 -1.68672,-6.374805 0,-3.497461 1.68672,-6.374804 1.71152,-2.902149 4.56406,-4.613672 2.85254,-1.736328 6.35,-1.736328 3.44785,0 6.30039,1.736328 2.87734,1.711523 4.58887,4.613672 1.71152,2.877343 1.71152,6.374804 0,2.604492 -0.99219,4.936133 -0.99218,2.306836 -2.70371,4.043164 -1.71152,1.736328 -4.01836,2.75332 -2.28203,0.992188 -4.88652,0.992188 z M 282.2052,70.51576 q -2.0836,0 -4.06797,-0.892969 -1.98438,-0.917774 -3.52227,-2.728516 -0.69453,-0.843359 -1.21543,-1.711523 -0.52089,-0.868164 -0.71933,-1.463477 -0.22324,0.595313 -0.74414,1.463477 -0.4961,0.868164 -1.19063,1.711523 -1.53789,1.810742 -3.54707,2.728516 -1.98437,0.892969 -4.04316,0.892969 -2.0836,0 -4.09277,-0.892969 -1.98438,-0.917774 -3.52227,-2.728516 -2.70371,-3.224609 -2.95176,-8.011914 V 46.455213 h 2.03399 q 0,11.186914 0.0248,11.980664 0,2.108398 0.64492,3.943945 0.66973,1.810742 1.81074,3.199805 1.21543,1.438672 2.77813,2.158008 1.5875,0.719336 3.24941,0.719336 1.66192,0 3.22461,-0.719336 1.5875,-0.719336 2.80293,-2.158008 1.16582,-1.389063 1.81074,-3.199805 0.66973,-1.835547 0.66973,-3.943945 l 0.0248,-0.79375 V 46.455213 h 2.03398 v 12.055078 q 0.12402,4.266406 2.48047,7.069336 1.21543,1.438672 2.77812,2.158008 1.5875,0.719336 3.24942,0.719336 1.66191,0 3.22461,-0.719336 1.5875,-0.719336 2.80293,-2.158008 1.16582,-1.389063 1.81074,-3.199805 0.66973,-1.835547 0.66973,-3.943945 V 46.455213 h 2.05878 v 12.476758 q -0.27285,4.7625 -2.95175,7.962304 -1.53789,1.810742 -3.54707,2.728516 -1.98438,0.892969 -4.06797,0.892969 z m 20.86074,0.0248 h -2.05879 V 35.342713 h 2.05879 z"
       id="text1"
       inkscape:transform-center-x="1.4693786"
       inkscape:transform-center-y="14.693786"
       aria-label="CRYPTowl" /><g
       transform="matrix(0.03133967,0,0,-0.03133967,5.7560561,97.122724)"
       fill="#000000"
       stroke="none"
       id="g2"
       style="fill:#704f3e;fill-opacity:1"><path
         d="m 1573,2761 c -98,-63 -165,-160 -181,-264 -17,-111 -10,-123 98,-147 102,-23 207,-85 300,-179 135,-135 200,-286 200,-467 0,-87 -32,-239 -56,-264 -8,-8 -14,-10 -14,-5 -1,6 -3,49 -5,96 -6,105 -40,228 -86,305 -50,84 -163,193 -284,273 -59,38 -223,129 -366,201 -142,72 -285,151 -318,176 -52,39 -91,92 -91,123 0,23 -16,9 -52,-47 -46,-71 -64,-121 -77,-213 -5,-39 -13,-75 -18,-79 -4,-4 -44,-21 -88,-38 -44,-17 -111,-45 -149,-62 l -69,-32 7,-77 c 25,-292 121,-634 249,-891 166,-332 417,-627 754,-883 34,-26 66,-47 71,-47 24,0 224,163 355,290 417,403 664,929 722,1536 l 7,72 -59,27 c -146,68 -364,144 -476,167 -55,12 -63,17 -97,63 -144,197 -193,288 -194,358 0,29 -4,47 -11,47 -7,0 -39,-17 -72,-39 z m 549,-641 c 133,-49 187,-73 191,-84 5,-15 -28,-211 -54,-316 -84,-337 -244,-657 -457,-910 -88,-105 -249,-266 -258,-258 -3,3 2,33 10,66 19,70 21,204 5,235 -19,38 -61,76 -93,86 -17,6 -75,15 -130,21 -292,31 -491,143 -646,363 -54,76 -96,183 -141,357 -37,143 -73,350 -62,361 13,13 154,69 173,69 9,0 31,-21 47,-47 17,-27 43,-59 57,-72 30,-28 31,-40 11,-118 -30,-113 -16,-242 38,-351 32,-65 149,-202 162,-190 4,4 -3,31 -16,60 -20,44 -24,69 -24,154 0,96 2,103 38,178 21,42 45,80 52,82 13,5 75,-21 75,-32 0,-3 -11,-20 -23,-37 -57,-77 -76,-212 -43,-305 46,-128 176,-222 310,-222 76,0 173,-18 216,-40 70,-36 119,-119 106,-181 -9,-47 16,-36 86,40 55,59 128,179 128,209 0,6 18,26 40,45 55,46 124,137 154,200 77,164 87,296 35,451 -16,50 -43,115 -60,145 -45,84 -46,84 73,41 z m -846,-427 c 55,-35 74,-75 53,-112 -21,-37 -60,-54 -94,-41 -15,6 -30,8 -33,5 -13,-12 21,-86 52,-113 88,-77 225,-30 243,83 6,39 18,43 51,16 37,-32 27,-72 -33,-139 -43,-49 -98,-73 -160,-73 -131,0 -229,96 -229,225 0,63 9,88 51,144 29,39 44,40 99,5 z"
         id="path1"
         style="fill:#704f3e;fill-opacity:1" /></g></g></svg>
